<svg version="1" xmlns="http://www.w3.org/2000/svg" width="400" height="400" viewBox="0 0 300.000000 300.000000"><path d="M86 75.9v4.9l5.8.7c8.2 1 12 2.8 12.9 6.2 1 3.5 1.1 121.9.1 125.4-.9 3.1-3.7 4.5-12.3 6l-6.5 1.1v9.8h70v-9.9l-4.7-.6c-2.7-.4-6.6-1.2-8.8-1.8-6.7-2-6.9-3.2-7-35.2v-28l16.9-.3c17.9-.3 26.8.8 29.7 3.4 1.9 1.7 4.1 7 5.9 14.1l1.1 4.3H200l-.2-29.3-.3-29.2-5.2-.3c-5-.3-5.3-.2-5.9 2.5-1.5 7.1-3.5 13-4.9 15-2.5 3.5-7.7 4.3-28.7 4.3H135v-23.4c0-12.8.3-24.8.6-26.6l.7-3.2 26.6.4c36 .5 36 .5 40.5 21 .6 2.7.9 2.8 6.8 2.8h6.1l-.7-6.1c-.3-3.4-.6-12.2-.6-19.5V71H86v4.9z"/></svg>